<svg width="17" height="17" viewBox="0 0 17 17" fill="none" xmlns="http://www.w3.org/2000/svg">
<path d="M15.7889 16.8337C6.90242 16.8462 0.157627 10.0212 0.167002 1.21178C0.167002 0.635742 0.633669 0.166992 1.20867 0.166992H3.95867C4.47429 0.166992 4.91284 0.546159 4.98888 1.05658C5.17023 2.28059 5.52629 3.47225 6.04617 4.59512L6.15346 4.82637C6.22553 4.98198 6.24103 5.15787 6.1973 5.32369C6.15356 5.48952 6.05332 5.63488 5.91388 5.7347C5.06179 6.34303 4.73679 7.56699 5.40034 8.52116C6.23574 9.72254 7.2784 10.7656 8.4795 11.6014C9.43471 12.2639 10.6587 11.9389 11.266 11.0878C11.3657 10.948 11.5112 10.8473 11.6772 10.8034C11.8433 10.7595 12.0195 10.775 12.1753 10.8472L12.4055 10.9534C13.5285 11.4743 14.7201 11.8305 15.9441 12.0118C16.4545 12.0878 16.8337 12.5264 16.8337 13.043V15.792C16.8337 15.9289 16.8067 16.0644 16.7543 16.1909C16.7019 16.3173 16.625 16.4322 16.5282 16.5289C16.4314 16.6257 16.3164 16.7024 16.1899 16.7547C16.0634 16.807 15.9278 16.8338 15.791 16.8337H15.7889Z" fill="black" fill-opacity="0.7"/>
</svg>
