<svg width="25" height="25" viewBox="0 0 25 25" fill="none" xmlns="http://www.w3.org/2000/svg">
<path d="M11.8734 0.00412606C9.86719 0.0283448 5.55391 0.358032 3.14141 2.57131C1.34687 4.34944 0.720312 6.97835 0.646874 10.2291C0.585937 13.4682 0.512499 19.551 6.37578 21.2073V23.7299C6.37578 23.7299 6.33906 24.7393 7.00625 24.9463C7.82812 25.2065 8.29609 24.4299 9.07734 23.5955L10.5344 21.9479C14.5461 22.2815 17.6187 21.5127 17.9727 21.3987C18.7867 21.1385 23.3719 20.5526 24.1211 14.469C24.8898 8.18616 23.7469 4.22756 21.6836 2.43694H21.6711C21.0484 1.8635 18.5461 0.0400636 12.9555 0.0197511C12.9555 0.0197511 12.5406 -0.00837394 11.8734 0.00334481V0.00412606ZM11.9422 1.77053C12.5117 1.76663 12.8578 1.79084 12.8578 1.79084C17.5898 1.80334 19.8484 3.22756 20.3812 3.70725C22.1187 5.19631 23.0141 8.76506 22.3586 14.0104C21.7359 19.0963 18.0172 19.4182 17.3289 19.6377C17.0359 19.7315 14.3297 20.3987 10.9203 20.1791C10.9203 20.1791 8.38125 23.2432 7.5875 24.0323C7.46172 24.1705 7.31484 24.2112 7.22109 24.1908C7.08672 24.158 7.04609 23.9916 7.05391 23.7635L7.07812 19.5768C2.10547 18.2018 2.39844 13.0135 2.45156 10.3033C2.5125 7.59319 3.02109 5.376 4.53516 3.87444C6.57344 2.03147 10.2359 1.78303 11.9406 1.77053H11.9422ZM12.3172 4.47991C12.2763 4.4795 12.2357 4.48719 12.1977 4.50254C12.1598 4.51789 12.1252 4.5406 12.0961 4.56936C12.067 4.59812 12.0439 4.63236 12.028 4.6701C12.0122 4.70785 12.004 4.74835 12.0039 4.78928C12.0039 4.96428 12.1461 5.10256 12.3172 5.10256C13.0918 5.08783 13.8617 5.2266 14.5824 5.51087C15.3031 5.79513 15.9604 6.21927 16.5164 6.75881C17.6516 7.86116 18.2047 9.34241 18.2258 11.2791C18.2258 11.4502 18.3641 11.5924 18.5391 11.5924V11.5799C18.6215 11.5801 18.7008 11.5477 18.7594 11.4898C18.8181 11.4318 18.8515 11.353 18.8523 11.2705C18.8903 10.3589 18.7424 9.44914 18.4178 8.59644C18.0932 7.74375 17.5986 6.96597 16.9641 6.31038C15.7273 5.10178 14.1602 4.47913 12.3172 4.47913V4.47991ZM8.19922 5.19631C7.97808 5.164 7.75255 5.20839 7.56016 5.32209H7.54375C7.09708 5.58392 6.6947 5.91485 6.35156 6.30256C6.06641 6.63225 5.91172 6.96584 5.87109 7.28694C5.84687 7.47834 5.86328 7.66975 5.92031 7.85256L5.94062 7.86506C6.26172 8.80881 6.68125 9.71663 7.19375 10.5713C7.85392 11.7721 8.66637 12.8825 9.61094 13.8752L9.63906 13.9158L9.68359 13.9487L9.71172 13.9815L9.74453 14.0096C10.7408 14.9569 11.854 15.7732 13.057 16.4385C14.432 17.1869 15.2664 17.5408 15.7672 17.6877V17.6955C15.9141 17.7401 16.0477 17.7604 16.182 17.7604C16.6088 17.7291 17.0128 17.5558 17.3297 17.2682C17.7156 16.925 18.0429 16.5209 18.2984 16.0721V16.0643C18.5383 15.6127 18.457 15.1854 18.1109 14.8963C17.4178 14.2905 16.6683 13.7523 15.8727 13.2893C15.3398 13.0002 14.7984 13.1752 14.5789 13.4682L14.1109 14.058C13.8711 14.351 13.4352 14.3104 13.4352 14.3104L13.4227 14.3182C10.1719 13.4877 9.30469 10.1963 9.30469 10.1963C9.30469 10.1963 9.26406 9.74866 9.56484 9.52053L10.1508 9.04866C10.4312 8.82053 10.6266 8.27991 10.3258 7.74631C9.86594 6.94956 9.32899 6.19987 8.72266 5.50803C8.5901 5.34493 8.40414 5.23396 8.19766 5.19475L8.19922 5.19631ZM12.8578 6.12444C12.443 6.12444 12.443 6.751 12.8617 6.751C13.3776 6.75937 13.8867 6.86931 14.36 7.07454C14.8334 7.27978 15.2616 7.57627 15.6203 7.94709C15.9475 8.30804 16.199 8.73099 16.3597 9.19088C16.5205 9.65077 16.5873 10.1382 16.5562 10.6244C16.5577 10.7067 16.5913 10.7852 16.6498 10.843C16.7084 10.9008 16.7872 10.9334 16.8695 10.9338L16.882 10.9502C16.9649 10.9496 17.0443 10.9164 17.1029 10.8578C17.1615 10.7992 17.1947 10.7198 17.1953 10.6369C17.2234 9.39553 16.8375 8.35413 16.0805 7.51975C15.3195 6.68538 14.2578 6.21741 12.9023 6.12444H12.8578ZM13.3711 7.80881C12.9437 7.79631 12.9273 8.43538 13.3508 8.44788C14.3805 8.501 14.8805 9.02131 14.9461 10.0916C14.9475 10.1729 14.9807 10.2503 15.0385 10.3074C15.0963 10.3645 15.1742 10.3967 15.2555 10.3971H15.268C15.3097 10.3953 15.3507 10.3852 15.3886 10.3674C15.4264 10.3496 15.4603 10.3244 15.4883 10.2934C15.5163 10.2623 15.5378 10.226 15.5517 10.1865C15.5655 10.1471 15.5713 10.1052 15.5687 10.0635C15.4953 8.66819 14.7344 7.88225 13.3836 7.8096H13.3711V7.80881Z" fill="black" fill-opacity="0.7"/>
</svg>
