<svg width="24" height="24" viewBox="0 0 24 24" fill="none" xmlns="http://www.w3.org/2000/svg">
<path d="M19.9233 3.4073C18.8488 2.32284 17.5692 1.46308 16.1591 0.878107C14.749 0.293138 13.2366 -0.00533829 11.71 7.22615e-05C5.31299 7.22615e-05 0.0996094 5.21199 0.09375 11.6104C0.09375 13.6597 0.629883 15.6534 1.64209 17.4185L0 23.4376L6.1582 21.8233C7.86182 22.7504 9.77041 23.2364 11.71 23.2369H11.7158C18.1143 23.2369 23.3262 18.025 23.332 11.6207C23.3335 10.0944 23.0329 8.58287 22.4477 7.17323C21.8624 5.7636 21.004 4.48371 19.9219 3.4073H19.9233ZM11.71 21.2711C9.97998 21.2716 8.28179 20.8061 6.79395 19.9234L6.44238 19.7125L2.78906 20.6705L3.76465 17.1065L3.53613 16.7388C2.56905 15.2012 2.05759 13.421 2.06104 11.6046C2.06104 6.29304 6.39258 1.96003 11.7158 1.96003C12.984 1.95776 14.2401 2.20653 15.4117 2.692C16.5832 3.17748 17.6471 3.89005 18.542 4.78865C19.44 5.68374 20.1519 6.74777 20.6366 7.91936C21.1213 9.09095 21.3693 10.3469 21.3662 11.6148C21.3604 16.9454 17.0288 21.2711 11.71 21.2711V21.2711ZM17.0054 14.0435C16.7168 13.8985 15.2915 13.1968 15.0234 13.0972C14.7568 13.002 14.562 12.9522 14.3716 13.2423C14.1768 13.5308 13.6201 14.1885 13.4531 14.3775C13.2861 14.5723 13.1133 14.5943 12.8232 14.4508C12.5347 14.3043 11.5986 13.9996 10.4912 13.0079C9.62695 12.2388 9.04834 11.2867 8.87549 10.9981C8.7085 10.7081 8.85937 10.5528 9.00439 10.4078C9.13184 10.2789 9.29297 10.0679 9.43799 9.90095C9.58447 9.73396 9.63281 9.61091 9.72803 9.41755C9.82324 9.22126 9.77783 9.05427 9.70605 8.90925C9.63281 8.76423 9.0542 7.33308 8.80957 6.75593C8.5752 6.18611 8.33643 6.26521 8.15771 6.25788C7.99072 6.24763 7.7959 6.24763 7.60107 6.24763C7.45395 6.25129 7.30917 6.28532 7.17582 6.34758C7.04247 6.40984 6.92343 6.499 6.82617 6.60945C6.55957 6.89949 5.81396 7.60115 5.81396 9.0323C5.81396 10.4635 6.854 11.8389 7.00049 12.0338C7.14404 12.2286 9.04248 15.1568 11.9561 16.4166C12.6445 16.7169 13.1865 16.8941 13.6099 17.0289C14.3057 17.2515 14.9341 17.2178 15.4351 17.1461C15.9917 17.0611 17.1504 16.4429 17.395 15.7647C17.6353 15.085 17.6353 14.505 17.562 14.3834C17.4902 14.2603 17.2954 14.1885 17.0054 14.0435V14.0435Z" fill="black" fill-opacity="0.7"/>
</svg>
